<svg xmlns="http://www.w3.org/2000/svg" viewBox="0 0 1000 1200" role="img" aria-labelledby="title desc">
  <title id="title">USAREUR-AF Patch</title>
  <desc id="desc">Local SVG rendering of the U.S. Army Europe and Africa shoulder sleeve insignia.</desc>
  <defs>
    <linearGradient id="shieldBlue" x1="0" x2="0" y1="0" y2="1">
      <stop offset="0%" stop-color="#2322a9"/>
      <stop offset="100%" stop-color="#1a1a8f"/>
    </linearGradient>
    <clipPath id="shieldClip">
      <path d="M500 40 C695 140 830 130 900 190 C900 710 720 980 500 1160 C280 980 100 710 100 190 C170 130 305 140 500 40 Z"/>
    </clipPath>
  </defs>

  <path
    d="M500 40 C695 140 830 130 900 190 C900 710 720 980 500 1160 C280 980 100 710 100 190 C170 130 305 140 500 40 Z"
    fill="#2622a8"
  />
  <path
    d="M500 90 C675 178 795 170 850 216 C850 688 690 925 500 1088 C310 925 150 688 150 216 C205 170 325 178 500 90 Z"
    fill="url(#shieldBlue)"
    stroke="#2a2a2a"
    stroke-width="6"
  />

  <g clip-path="url(#shieldClip)">
    <path d="M130 145 Q500 -8 870 145 L870 252 Q500 95 130 252 Z" fill="#99a5af"/>
    <path d="M120 270 Q500 96 880 270 L880 298 Q500 126 120 298 Z" fill="#c71535"/>
    <path d="M120 298 Q500 126 880 298 L880 328 Q500 156 120 328 Z" fill="#f29c1f"/>
    <path d="M120 328 Q500 156 880 328 L880 356 Q500 184 120 356 Z" fill="#ffd23f"/>
    <path d="M120 356 Q500 184 880 356 L880 386 Q500 214 120 386 Z" fill="#1f6f3d"/>
    <path d="M120 386 Q500 214 880 386 L880 396 Q500 224 120 396 Z" fill="#2622a8"/>
  </g>

  <g transform="translate(500 620)">
    <path
      d="M0 -290 L20 -258 L20 178 L0 190 L-20 178 L-20 -258 Z"
      fill="#f4f4f0"
    />
    <g fill="#c61d36">
      <path d="M-40 -250 C-90 -210 -72 -130 -24 -92 C-74 -106 -109 -59 -92 -8 C-75 39 -23 39 -3 80 C-42 62 -95 69 -107 116 C-118 159 -76 190 -17 192 L-17 136 C-54 126 -73 109 -73 88 C-73 60 -44 46 -12 56 C-21 24 -64 13 -73 -23 C-81 -56 -61 -79 -27 -79 C-37 -118 -67 -139 -70 -182 C-73 -216 -56 -238 -40 -250 Z"/>
      <path d="M40 -250 C90 -210 72 -130 24 -92 C74 -106 109 -59 92 -8 C75 39 23 39 3 80 C42 62 95 69 107 116 C118 159 76 190 17 192 L17 136 C54 126 73 109 73 88 C73 60 44 46 12 56 C21 24 64 13 73 -23 C81 -56 61 -79 27 -79 C37 -118 67 -139 70 -182 C73 -216 56 -238 40 -250 Z"/>
      <path d="M-86 -168 C-121 -131 -113 -73 -63 -52 C-96 -47 -122 -20 -119 14 C-115 50 -79 70 -38 80 L-38 33 C-62 28 -82 18 -84 -2 C-86 -27 -63 -35 -38 -34 C-62 -56 -86 -79 -86 -115 C-86 -135 -79 -152 -86 -168 Z"/>
      <path d="M86 -168 C121 -131 113 -73 63 -52 C96 -47 122 -20 119 14 C115 50 79 70 38 80 L38 33 C62 28 82 18 84 -2 C86 -27 63 -35 38 -34 C62 -56 86 -79 86 -115 C86 -135 79 -152 86 -168 Z"/>
    </g>
    <path
      d="M-34 186 C-34 142 34 142 34 186 L34 320 C34 347 15 364 0 364 C-15 364 -34 347 -34 320 Z"
      fill="#ffc92b"
    />
    <path
      d="M-126 208 C-95 182 -55 173 0 173 C55 173 95 182 126 208 C112 232 90 241 53 248 C20 254 -20 254 -53 248 C-90 241 -112 232 -126 208 Z"
      fill="#ffc92b"
    />
  </g>
</svg>
